# xmcd CD database file
#
# Track frame offsets:
#	150
#	20302
#	41221
#	63903
#	78853
#	99641
#	121627
#	148490
#	166712
#	192509
#
# Disc length: 2916 seconds
#
# Revision: 1
# Processed by: cddbd v1.5.2PL0 Copyright (c) Steve Scherf et al.
# Submitted via: CDex 1.51
#
DISCID=800b620a
DTITLE=Julie Lee - Take Me Out To Here The Band
DYEAR=2007
DGENRE=Jazz
TTITLE0=Married Girl Blues
TTITLE1=Born To Pine and Sigh
TTITLE2=A Good Man Is Hard To Find
TTITLE3=Undecided
TTITLE4=My Old Friend
TTITLE5=Little Evening Star
TTITLE6=Before You Came Along
TTITLE7=Change Is Gonna Come
TTITLE8=The Battlefield
TTITLE9=The River
EXTD=YEAR: 2007
EXTT0=
EXTT1=
EXTT2=
EXTT3=
EXTT4=
EXTT5=
EXTT6=
EXTT7=
EXTT8=
EXTT9=
PLAYORDER=
